{
  "accessors": [
    {
      "bufferView": 2,
      "componentType": 5126,
      "count": 1189,
      "max": [
        0.22165100276470184,
        0.12521499395370483,
        1.363360047340393
      ],
      "min": [
        -1.910770058631897,
        -0.27983900904655457,
        1.1150100231170654
      ],
      "type": "VEC3"
    },
    {
      "bufferView": 2,
      "byteOffset": 14268,
      "componentType": 5126,
      "count": 1189,
      "max": [
        0.999953031539917,
        0.9999968409538269,
        0.9999372959136963
      ],
      "min": [
        -0.9993345737457275,
        -0.9999790787696838,
        -0.9998518824577332
      ],
      "type": "VEC3"
    },
    {
      "bufferView": 1,
      "componentType": 5126,
      "count": 1189,
      "max": [
        1.0010000467300415,
        0.9958209991455078
      ],
      "min": [
        0.0,
        0.0031789999920874834
      ],
      "type": "VEC2"
    },
    {
      "bufferView": 0,
      "componentType": 5125,
      "count": 3864,
      "type": "SCALAR"
    },
    {
      "bufferView": 2,
      "byteOffset": 28536,
      "componentType": 5126,
      "count": 7753,
      "max": [
        1.2664599418640137,
        0.5290020108222961,
        2.000960111618042
      ],
      "min": [
        -1.2664599418640137,
        -0.37999698519706726,
        -0.003469000104814768
      ],
      "type": "VEC3"
    },
    {
      "bufferView": 2,
      "byteOffset": 121572,
      "componentType": 5126,
      "count": 7753,
      "max": [
        0.9998857975006104,
        1.0,
        1.0
      ],
      "min": [
        -1.0,
        -0.999994695186615,
        -1.0
      ],
      "type": "VEC3"
    },
    {
      "bufferView": 1,
      "byteOffset": 9512,
      "componentType": 5126,
      "count": 7753,
      "max": [
        0.9955499768257141,
        0.9948850274085999
      ],
      "min": [
        0.003869999898597598,
        0.004048999864608049
      ],
      "type": "VEC2"
    },
    {
      "bufferView": 0,
      "byteOffset": 15456,
      "componentType": 5125,
      "count": 16116,
      "type": "SCALAR"
    },
    {
      "bufferView": 2,
      "byteOffset": 214608,
      "componentType": 5126,
      "count": 825,
      "max": [
        1.250599980354309,
        0.5641239881515503,
        1.8837599754333496
      ],
      "min": [
        -1.0609500408172607,
        -0.25145798921585083,
        -0.05210600048303604
      ],
      "type": "VEC3"
    },
    {
      "bufferView": 2,
      "byteOffset": 224508,
      "componentType": 5126,
      "count": 825,
      "max": [
        0.9999749660491943,
        1.0,
        1.0
      ],
      "min": [
        -0.9999750256538391,
        -1.0,
        -1.0
      ],
      "type": "VEC3"
    },
    {
      "bufferView": 1,
      "byteOffset": 71536,
      "componentType": 5126,
      "count": 825,
      "max": [
        0.9877640008926392,
        0.9899359941482544
      ],
      "min": [
        0.05421900004148483,
        0.010072999633848667
      ],
      "type": "VEC2"
    },
    {
      "bufferView": 0,
      "byteOffset": 79920,
      "componentType": 5125,
      "count": 2211,
      "type": "SCALAR"
    },
    {
      "bufferView": 2,
      "byteOffset": 234408,
      "componentType": 5126,
      "count": 3326,
      "max": [
        1.250599980354309,
        0.610256016254425,
        1.8837599754333496
      ],
      "min": [
        -1.250599980354309,
        -0.3123199939727783,
        -0.05211900174617767
      ],
      "type": "VEC3"
    },
    {
      "bufferView": 2,
      "byteOffset": 274320,
      "componentType": 5126,
      "count": 3326,
      "max": [
        1.0,
        1.0,
        0.9999999403953552
      ],
      "min": [
        -1.0,
        -1.0,
        -1.0
      ],
      "type": "VEC3"
    },
    {
      "bufferView": 1,
      "byteOffset": 78136,
      "componentType": 5126,
      "count": 3326,
      "max": [
        0.9894120097160339,
        0.9916250109672546
      ],
      "min": [
        0.003585000056773424,
        0.009623999707400799
      ],
      "type": "VEC2"
    },
    {
      "bufferView": 0,
      "byteOffset": 88764,
      "componentType": 5125,
      "count": 6729,
      "type": "SCALAR"
    }
  ],
  "asset": {
    "extras": {
      "author": "pma2 (https://sketchfab.com/pma2)",
      "license": "CC-BY-4.0 (http://creativecommons.org/licenses/by/4.0/)",
      "source": "https://sketchfab.com/3d-models/ace-chicken-little-ace-in-action-wii-3219050d4b374489adf7a4465a7a644c",
      "title": "Ace (Chicken Little: Ace in Action Wii)"
    },
    "generator": "Sketchfab-14.40.0",
    "version": "2.0"
  },
  "bufferViews": [
    {
      "buffer": 0,
      "byteLength": 115680,
      "name": "floatBufferViews",
      "target": 34963
    },
    {
      "buffer": 0,
      "byteLength": 104744,
      "byteOffset": 115680,
      "byteStride": 8,
      "name": "floatBufferViews",
      "target": 34962
    },
    {
      "buffer": 0,
      "byteLength": 314232,
      "byteOffset": 220424,
      "byteStride": 12,
      "name": "floatBufferViews",
      "target": 34962
    }
  ],
  "buffers": [
    {
      "byteLength": 534656,
      "uri": "scene.bin"
    }
  ],
  "images": [
    {
      "uri": "textures/Material.001_baseColor.png"
    },
    {
      "uri": "textures/Material.002_baseColor.png"
    },
    {
      "uri": "textures/Material.003_baseColor.png"
    }
  ],
  "materials": [
    {
      "doubleSided": true,
      "name": "Material.001",
      "pbrMetallicRoughness": {
        "baseColorTexture": {
          "index": 0
        },
        "metallicFactor": 0.0,
        "roughnessFactor": 0.8063508326896291
      }
    },
    {
      "doubleSided": true,
      "name": "Material.002",
      "pbrMetallicRoughness": {
        "baseColorTexture": {
          "index": 1
        },
        "metallicFactor": 0.0,
        "roughnessFactor": 0.8063508326896291
      }
    },
    {
      "doubleSided": true,
      "name": "Material.003",
      "pbrMetallicRoughness": {
        "baseColorTexture": {
          "index": 2
        },
        "metallicFactor": 0.0,
        "roughnessFactor": 0.8063508326896291
      }
    }
  ],
  "meshes": [
    {
      "name": "Object_0",
      "primitives": [
        {
          "attributes": {
            "NORMAL": 1,
            "POSITION": 0,
            "TEXCOORD_0": 2
          },
          "indices": 3,
          "material": 2,
          "mode": 4
        }
      ]
    },
    {
      "name": "Object_1",
      "primitives": [
        {
          "attributes": {
            "NORMAL": 5,
            "POSITION": 4,
            "TEXCOORD_0": 6
          },
          "indices": 7,
          "material": 0,
          "mode": 4
        }
      ]
    },
    {
      "name": "Object_2",
      "primitives": [
        {
          "attributes": {
            "NORMAL": 9,
            "POSITION": 8,
            "TEXCOORD_0": 10
          },
          "indices": 11,
          "material": 1,
          "mode": 4
        }
      ]
    },
    {
      "name": "Object_3",
      "primitives": [
        {
          "attributes": {
            "NORMAL": 13,
            "POSITION": 12,
            "TEXCOORD_0": 14
          },
          "indices": 15,
          "material": 1,
          "mode": 4
        }
      ]
    }
  ],
  "nodes": [
    {
      "children": [
        1
      ],
      "matrix": [
        1.0,
        0.0,
        0.0,
        0.0,
        0.0,
        2.220446049250313e-16,
        -1.0,
        0.0,
        0.0,
        1.0,
        2.220446049250313e-16,
        0.0,
        0.0,
        0.0,
        0.0,
        1.0
      ],
      "name": "Sketchfab_model"
    },
    {
      "children": [
        2,
        3,
        4,
        5
      ],
      "name": "ace 2.obj.cleaner.materialmerger.gles"
    },
    {
      "mesh": 0,
      "name": "Object_2"
    },
    {
      "mesh": 1,
      "name": "Object_3"
    },
    {
      "mesh": 2,
      "name": "Object_4"
    },
    {
      "mesh": 3,
      "name": "Object_5"
    }
  ],
  "samplers": [
    {
      "magFilter": 9729,
      "minFilter": 9987,
      "wrapS": 10497,
      "wrapT": 10497
    }
  ],
  "scene": 0,
  "scenes": [
    {
      "name": "Sketchfab_Scene",
      "nodes": [
        0
      ]
    }
  ],
  "textures": [
    {
      "sampler": 0,
      "source": 0
    },
    {
      "sampler": 0,
      "source": 1
    },
    {
      "sampler": 0,
      "source": 2
    }
  ]
}
