{
  "accessors": [
    {
      "bufferView": 2,
      "componentType": 5126,
      "count": 137,
      "max": [
        0.04355420172214508,
        -0.20392079651355743,
        1.5308899879455566
      ],
      "min": [
        -0.04303449019789696,
        -0.2715679109096527,
        1.4978669881820679
      ],
      "type": "VEC3"
    },
    {
      "bufferView": 2,
      "byteOffset": 1644,
      "componentType": 5126,
      "count": 137,
      "max": [
        0.9803990721702576,
        0.9092474579811096,
        0.9597805142402649
      ],
      "min": [
        -0.9793736934661865,
        -0.9810382723808289,
        -0.7322085499763489
      ],
      "type": "VEC3"
    },
    {
      "bufferView": 1,
      "componentType": 5126,
      "count": 137,
      "max": [
        1.0,
        1.0
      ],
      "min": [
        0.0,
        0.0
      ],
      "type": "VEC2"
    },
    {
      "bufferView": 0,
      "componentType": 5125,
      "count": 216,
      "type": "SCALAR"
    },
    {
      "bufferView": 2,
      "byteOffset": 3288,
      "componentType": 5126,
      "count": 183,
      "max": [
        0.10314589738845825,
        -0.11626660078763962,
        1.6602389812469482
      ],
      "min": [
        -0.10314589738845825,
        -0.20727290213108063,
        1.5677380561828613
      ],
      "type": "VEC3"
    },
    {
      "bufferView": 2,
      "byteOffset": 5484,
      "componentType": 5126,
      "count": 183,
      "max": [
        0.9762675166130066,
        0.993736982345581,
        0.9842256903648376
      ],
      "min": [
        -0.9762675166130066,
        -0.9846620559692383,
        -0.9834809899330139
      ],
      "type": "VEC3"
    },
    {
      "bufferView": 1,
      "byteOffset": 1096,
      "componentType": 5126,
      "count": 183,
      "max": [
        0.9578610062599182,
        0.9511309862136841
      ],
      "min": [
        0.01915000006556511,
        0.014371990226209164
      ],
      "type": "VEC2"
    },
    {
      "bufferView": 0,
      "byteOffset": 864,
      "componentType": 5125,
      "count": 789,
      "type": "SCALAR"
    },
    {
      "bufferView": 2,
      "byteOffset": 7680,
      "componentType": 5126,
      "count": 125,
      "max": [
        0.027596810832619667,
        -0.17316660284996033,
        1.521610975265503
      ],
      "min": [
        -0.027596810832619667,
        -0.2614876925945282,
        1.4999539852142334
      ],
      "type": "VEC3"
    },
    {
      "bufferView": 2,
      "byteOffset": 9180,
      "componentType": 5126,
      "count": 125,
      "max": [
        0.9957733750343323,
        0.8399088978767395,
        0.9985739588737488
      ],
      "min": [
        -0.9923661947250366,
        -0.20080803334712982,
        -0.9997677803039551
      ],
      "type": "VEC3"
    },
    {
      "bufferView": 1,
      "byteOffset": 2560,
      "componentType": 5126,
      "count": 125,
      "max": [
        1.0,
        1.0
      ],
      "min": [
        0.0,
        0.0
      ],
      "type": "VEC2"
    },
    {
      "bufferView": 0,
      "byteOffset": 4020,
      "componentType": 5125,
      "count": 204,
      "type": "SCALAR"
    },
    {
      "bufferView": 2,
      "byteOffset": 10680,
      "componentType": 5126,
      "count": 3645,
      "max": [
        1.192587971687317,
        0.27935731410980225,
        2.033416986465454
      ],
      "min": [
        -1.192587971687317,
        -0.565514087677002,
        0.001318646944127977
      ],
      "type": "VEC3"
    },
    {
      "bufferView": 2,
      "byteOffset": 54420,
      "componentType": 5126,
      "count": 3645,
      "max": [
        0.9999979138374329,
        0.9998705983161926,
        0.9999997615814209
      ],
      "min": [
        -0.9999904036521912,
        -0.9992638826370239,
        -1.0
      ],
      "type": "VEC3"
    },
    {
      "bufferView": 1,
      "byteOffset": 3560,
      "componentType": 5126,
      "count": 3645,
      "max": [
        0.9964389801025391,
        0.9957640171051025
      ],
      "min": [
        0.0009260000078938901,
        0.0007879734039306641
      ],
      "type": "VEC2"
    },
    {
      "bufferView": 0,
      "byteOffset": 4836,
      "componentType": 5125,
      "count": 8916,
      "type": "SCALAR"
    },
    {
      "bufferView": 2,
      "byteOffset": 98160,
      "componentType": 5126,
      "count": 82,
      "max": [
        0.26859280467033386,
        1.3064889907836914,
        1.2571929693222046
      ],
      "min": [
        -0.2446707934141159,
        0.23464450240135193,
        0.23915959894657135
      ],
      "type": "VEC3"
    },
    {
      "bufferView": 2,
      "byteOffset": 99144,
      "componentType": 5126,
      "count": 82,
      "max": [
        0.9999020099639893,
        0.6556276082992554,
        0.2674611806869507
      ],
      "min": [
        -0.9997014999389648,
        -0.08356703817844391,
        -0.42825764417648315
      ],
      "type": "VEC3"
    },
    {
      "bufferView": 1,
      "byteOffset": 32720,
      "componentType": 5126,
      "count": 82,
      "max": [
        0.9933890104293823,
        0.9587820172309875
      ],
      "min": [
        0.005171999800950289,
        0.04023998975753784
      ],
      "type": "VEC2"
    },
    {
      "bufferView": 0,
      "byteOffset": 40500,
      "componentType": 5125,
      "count": 198,
      "type": "SCALAR"
    },
    {
      "bufferView": 2,
      "byteOffset": 100128,
      "componentType": 5126,
      "count": 72,
      "max": [
        0.35531771183013916,
        0.10826729983091354,
        0.3520349860191345
      ],
      "min": [
        -0.3553175926208496,
        -0.1414836049079895,
        0.21868279576301575
      ],
      "type": "VEC3"
    },
    {
      "bufferView": 2,
      "byteOffset": 100992,
      "componentType": 5126,
      "count": 72,
      "max": [
        0.887003481388092,
        0.7642050385475159,
        0.9969452023506165
      ],
      "min": [
        -0.8870035409927368,
        -0.7901742458343506,
        0.42427679896354675
      ],
      "type": "VEC3"
    },
    {
      "bufferView": 1,
      "byteOffset": 33376,
      "componentType": 5126,
      "count": 72,
      "max": [
        1.0000100135803223,
        1.0000100135803223
      ],
      "min": [
        0.0,
        0.0
      ],
      "type": "VEC2"
    },
    {
      "bufferView": 0,
      "byteOffset": 41292,
      "componentType": 5125,
      "count": 144,
      "type": "SCALAR"
    },
    {
      "bufferView": 2,
      "byteOffset": 101856,
      "componentType": 5126,
      "count": 201,
      "max": [
        0.4306286871433258,
        0.20647390186786652,
        1.554276943206787
      ],
      "min": [
        -0.43062838912010193,
        -0.30036240816116333,
        0.19503140449523926
      ],
      "type": "VEC3"
    },
    {
      "bufferView": 2,
      "byteOffset": 104268,
      "componentType": 5126,
      "count": 201,
      "max": [
        0.956890881061554,
        0.962435781955719,
        0.8971216678619385
      ],
      "min": [
        -0.9747306108474731,
        -0.6989861130714417,
        -0.9943864941596985
      ],
      "type": "VEC3"
    },
    {
      "bufferView": 1,
      "byteOffset": 33952,
      "componentType": 5126,
      "count": 201,
      "max": [
        1.0000100135803223,
        1.0000100135803223
      ],
      "min": [
        -9.999999974752427e-07,
        -9.5367431640625e-07
      ],
      "type": "VEC2"
    },
    {
      "bufferView": 0,
      "byteOffset": 41868,
      "componentType": 5125,
      "count": 342,
      "type": "SCALAR"
    }
  ],
  "asset": {
    "extras": {
      "author": "Jamessmartguy (https://sketchfab.com/skybaca1985)",
      "license": "CC-BY-4.0 (http://creativecommons.org/licenses/by/4.0/)",
      "source": "https://sketchfab.com/3d-models/buck-cluck-add-for-garrys-mod-ad6631f5d63a48cf8ae75c8120595e69",
      "title": "Buck Cluck add for Garry's Mod"
    },
    "generator": "Sketchfab-16.10.0",
    "version": "2.0"
  },
  "bufferViews": [
    {
      "buffer": 0,
      "byteLength": 43236,
      "name": "floatBufferViews",
      "target": 34963
    },
    {
      "buffer": 0,
      "byteLength": 35560,
      "byteOffset": 43236,
      "byteStride": 8,
      "name": "floatBufferViews",
      "target": 34962
    },
    {
      "buffer": 0,
      "byteLength": 106680,
      "byteOffset": 78796,
      "byteStride": 12,
      "name": "floatBufferViews",
      "target": 34962
    }
  ],
  "buffers": [
    {
      "byteLength": 185476,
      "uri": "scene.bin"
    }
  ],
  "images": [
    {
      "uri": "textures/Material_baseColor.png"
    },
    {
      "uri": "textures/Material_1_baseColor.png"
    },
    {
      "uri": "textures/Material_18_baseColor.png"
    },
    {
      "uri": "textures/Material_19_baseColor.png"
    },
    {
      "uri": "textures/Material_2_baseColor.png"
    },
    {
      "uri": "textures/Material_3_baseColor.png"
    }
  ],
  "materials": [
    {
      "doubleSided": true,
      "name": "Material",
      "pbrMetallicRoughness": {
        "baseColorTexture": {
          "index": 0
        },
        "metallicFactor": 0.0,
        "roughnessFactor": 0.6
      }
    },
    {
      "doubleSided": true,
      "name": "Material_1",
      "pbrMetallicRoughness": {
        "baseColorTexture": {
          "index": 1
        },
        "metallicFactor": 0.0,
        "roughnessFactor": 0.6
      }
    },
    {
      "doubleSided": true,
      "name": "Material_17",
      "pbrMetallicRoughness": {
        "metallicFactor": 0.0,
        "roughnessFactor": 0.6
      }
    },
    {
      "doubleSided": true,
      "name": "Material_18",
      "pbrMetallicRoughness": {
        "baseColorTexture": {
          "index": 2
        },
        "metallicFactor": 0.0,
        "roughnessFactor": 0.6
      }
    },
    {
      "doubleSided": true,
      "name": "Material_19",
      "pbrMetallicRoughness": {
        "baseColorTexture": {
          "index": 3
        },
        "metallicFactor": 0.0,
        "roughnessFactor": 0.6
      }
    },
    {
      "doubleSided": true,
      "name": "Material_2",
      "pbrMetallicRoughness": {
        "baseColorTexture": {
          "index": 4
        },
        "metallicFactor": 0.0,
        "roughnessFactor": 0.6
      }
    },
    {
      "doubleSided": true,
      "name": "Material_3",
      "pbrMetallicRoughness": {
        "baseColorTexture": {
          "index": 5
        },
        "metallicFactor": 0.0,
        "roughnessFactor": 0.6
      }
    }
  ],
  "meshes": [
    {
      "name": "Object_0",
      "primitives": [
        {
          "attributes": {
            "NORMAL": 1,
            "POSITION": 0,
            "TEXCOORD_0": 2
          },
          "indices": 3,
          "material": 2,
          "mode": 4
        }
      ]
    },
    {
      "name": "Object_1",
      "primitives": [
        {
          "attributes": {
            "NORMAL": 5,
            "POSITION": 4,
            "TEXCOORD_0": 6
          },
          "indices": 7,
          "material": 0,
          "mode": 4
        }
      ]
    },
    {
      "name": "Object_2",
      "primitives": [
        {
          "attributes": {
            "NORMAL": 9,
            "POSITION": 8,
            "TEXCOORD_0": 10
          },
          "indices": 11,
          "material": 3,
          "mode": 4
        }
      ]
    },
    {
      "name": "Object_3",
      "primitives": [
        {
          "attributes": {
            "NORMAL": 13,
            "POSITION": 12,
            "TEXCOORD_0": 14
          },
          "indices": 15,
          "material": 4,
          "mode": 4
        }
      ]
    },
    {
      "name": "Object_4",
      "primitives": [
        {
          "attributes": {
            "NORMAL": 17,
            "POSITION": 16,
            "TEXCOORD_0": 18
          },
          "indices": 19,
          "material": 6,
          "mode": 4
        }
      ]
    },
    {
      "name": "Object_5",
      "primitives": [
        {
          "attributes": {
            "NORMAL": 21,
            "POSITION": 20,
            "TEXCOORD_0": 22
          },
          "indices": 23,
          "material": 5,
          "mode": 4
        }
      ]
    },
    {
      "name": "Object_6",
      "primitives": [
        {
          "attributes": {
            "NORMAL": 25,
            "POSITION": 24,
            "TEXCOORD_0": 26
          },
          "indices": 27,
          "material": 1,
          "mode": 4
        }
      ]
    }
  ],
  "nodes": [
    {
      "children": [
        1
      ],
      "matrix": [
        1.0,
        0.0,
        0.0,
        0.0,
        0.0,
        2.220446049250313e-16,
        -1.0,
        0.0,
        0.0,
        1.0,
        2.220446049250313e-16,
        0.0,
        0.0,
        0.0,
        0.0,
        1.0
      ],
      "name": "Sketchfab_model"
    },
    {
      "children": [
        2,
        3,
        4,
        5,
        6,
        7,
        8
      ],
      "name": "Buck Clock with FBX .obj.cleaner.materialmerger.gles"
    },
    {
      "mesh": 0,
      "name": "Object_2"
    },
    {
      "mesh": 1,
      "name": "Object_3"
    },
    {
      "mesh": 2,
      "name": "Object_4"
    },
    {
      "mesh": 3,
      "name": "Object_5"
    },
    {
      "mesh": 4,
      "name": "Object_6"
    },
    {
      "mesh": 5,
      "name": "Object_7"
    },
    {
      "mesh": 6,
      "name": "Object_8"
    }
  ],
  "samplers": [
    {
      "magFilter": 9729,
      "minFilter": 9987,
      "wrapS": 10497,
      "wrapT": 10497
    }
  ],
  "scene": 0,
  "scenes": [
    {
      "name": "Sketchfab_Scene",
      "nodes": [
        0
      ]
    }
  ],
  "textures": [
    {
      "sampler": 0,
      "source": 0
    },
    {
      "sampler": 0,
      "source": 1
    },
    {
      "sampler": 0,
      "source": 2
    },
    {
      "sampler": 0,
      "source": 3
    },
    {
      "sampler": 0,
      "source": 4
    },
    {
      "sampler": 0,
      "source": 5
    }
  ]
}
