{
  "accessors": [
    {
      "bufferView": 2,
      "componentType": 5126,
      "count": 1851,
      "max": [
        0.3222000002861023,
        0.1865530014038086,
        0.7590950131416321
      ],
      "min": [
        -0.3222000002861023,
        -0.1175599992275238,
        -0.00020199999562464654
      ],
      "type": "VEC3"
    },
    {
      "bufferView": 2,
      "byteOffset": 22212,
      "componentType": 5126,
      "count": 1851,
      "max": [
        0.9999476671218872,
        1.0,
        0.9999926090240479
      ],
      "min": [
        -0.999947726726532,
        -1.0,
        -0.9999212622642517
      ],
      "type": "VEC3"
    },
    {
      "bufferView": 1,
      "componentType": 5126,
      "count": 1851,
      "max": [
        0.9855139851570129,
        0.9862020015716553
      ],
      "min": [
        0.012063000351190567,
        0.017472999170422554
      ],
      "type": "VEC2"
    },
    {
      "bufferView": 0,
      "componentType": 5125,
      "count": 5826,
      "type": "SCALAR"
    },
    {
      "bufferView": 2,
      "byteOffset": 44424,
      "componentType": 5126,
      "count": 109,
      "max": [
        0.0537838414311409,
        0.03760199993848801,
        0.6561098098754883
      ],
      "min": [
        -0.05521387979388237,
        -0.022928660735487938,
        0.02314399927854538
      ],
      "type": "VEC3"
    },
    {
      "bufferView": 2,
      "byteOffset": 45732,
      "componentType": 5126,
      "count": 109,
      "max": [
        0.9987106323242188,
        1.0,
        0.866552472114563
      ],
      "min": [
        -0.8909907937049866,
        -0.998440146446228,
        -0.8665114045143127
      ],
      "type": "VEC3"
    },
    {
      "bufferView": 1,
      "byteOffset": 14808,
      "componentType": 5126,
      "count": 109,
      "max": [
        0.9740470051765442,
        0.9414600133895874
      ],
      "min": [
        0.044381000101566315,
        0.03869900107383728
      ],
      "type": "VEC2"
    },
    {
      "bufferView": 0,
      "byteOffset": 23304,
      "componentType": 5125,
      "count": 393,
      "type": "SCALAR"
    }
  ],
  "asset": {
    "extras": {
      "author": "Jamessmartguy (https://sketchfab.com/skybaca1985)",
      "license": "CC-BY-4.0 (http://creativecommons.org/licenses/by/4.0/)",
      "source": "https://sketchfab.com/3d-models/the-dog-ab8c051827304ab7b88f41348b705809",
      "title": "The Dog"
    },
    "generator": "Sketchfab-16.8.0",
    "version": "2.0"
  },
  "bufferViews": [
    {
      "buffer": 0,
      "byteLength": 24876,
      "name": "floatBufferViews",
      "target": 34963
    },
    {
      "buffer": 0,
      "byteLength": 15680,
      "byteOffset": 24876,
      "byteStride": 8,
      "name": "floatBufferViews",
      "target": 34962
    },
    {
      "buffer": 0,
      "byteLength": 47040,
      "byteOffset": 40556,
      "byteStride": 12,
      "name": "floatBufferViews",
      "target": 34962
    }
  ],
  "buffers": [
    {
      "byteLength": 87596,
      "uri": "scene.bin"
    }
  ],
  "images": [
    {
      "uri": "textures/Material_2_baseColor.jpeg"
    },
    {
      "uri": "textures/Material_4_baseColor.jpeg"
    }
  ],
  "materials": [
    {
      "doubleSided": true,
      "name": "Material_2",
      "pbrMetallicRoughness": {
        "baseColorTexture": {
          "index": 0
        },
        "metallicFactor": 0.0,
        "roughnessFactor": 0.6
      }
    },
    {
      "doubleSided": true,
      "name": "Material_4",
      "pbrMetallicRoughness": {
        "baseColorTexture": {
          "index": 1
        },
        "metallicFactor": 0.0,
        "roughnessFactor": 0.6
      }
    }
  ],
  "meshes": [
    {
      "name": "Object_0",
      "primitives": [
        {
          "attributes": {
            "NORMAL": 1,
            "POSITION": 0,
            "TEXCOORD_0": 2
          },
          "indices": 3,
          "material": 0,
          "mode": 4
        }
      ]
    },
    {
      "name": "Object_1",
      "primitives": [
        {
          "attributes": {
            "NORMAL": 5,
            "POSITION": 4,
            "TEXCOORD_0": 6
          },
          "indices": 7,
          "material": 1,
          "mode": 4
        }
      ]
    }
  ],
  "nodes": [
    {
      "children": [
        1
      ],
      "matrix": [
        1.0,
        0.0,
        0.0,
        0.0,
        0.0,
        2.220446049250313e-16,
        -1.0,
        0.0,
        0.0,
        1.0,
        2.220446049250313e-16,
        0.0,
        0.0,
        0.0,
        0.0,
        1.0
      ],
      "name": "Sketchfab_model"
    },
    {
      "children": [
        2,
        3
      ],
      "name": "New Project.obj.cleaner.materialmerger.gles"
    },
    {
      "mesh": 0,
      "name": "Object_2"
    },
    {
      "mesh": 1,
      "name": "Object_3"
    }
  ],
  "samplers": [
    {
      "magFilter": 9729,
      "minFilter": 9987,
      "wrapS": 10497,
      "wrapT": 10497
    }
  ],
  "scene": 0,
  "scenes": [
    {
      "name": "Sketchfab_Scene",
      "nodes": [
        0
      ]
    }
  ],
  "textures": [
    {
      "sampler": 0,
      "source": 0
    },
    {
      "sampler": 0,
      "source": 1
    }
  ]
}
