{
  "accessors": [
    {
      "bufferView": 2,
      "componentType": 5126,
      "count": 4192,
      "max": [
        1.5381419658660889,
        1.574187994003296,
        4.328670978546143
      ],
      "min": [
        -1.5381419658660889,
        -1.282135009765625,
        0.0006520000169984996
      ],
      "type": "VEC3"
    },
    {
      "bufferView": 2,
      "byteOffset": 50304,
      "componentType": 5126,
      "count": 4192,
      "max": [
        0.9990695118904114,
        0.9996616840362549,
        0.9999982118606567
      ],
      "min": [
        -0.9987130165100098,
        -0.9999889731407166,
        -0.999987781047821
      ],
      "type": "VEC3"
    },
    {
      "bufferView": 1,
      "componentType": 5126,
      "count": 4192,
      "max": [
        0.9958000183105469,
        0.9947999715805054
      ],
      "min": [
        0.002300000051036477,
        -0.17059999704360962
      ],
      "type": "VEC2"
    },
    {
      "bufferView": 0,
      "componentType": 5125,
      "count": 11853,
      "type": "SCALAR"
    }
  ],
  "asset": {
    "extras": {
      "author": "Jamessmartguy (https://sketchfab.com/skybaca1985)",
      "license": "CC-BY-4.0 (http://creativecommons.org/licenses/by/4.0/)",
      "source": "https://sketchfab.com/3d-models/runt-of-the-litter-for-garry-mod-ccf8de8b1cd644569a736f59985df5d9",
      "title": "Runt Of The Litter for Garry Mod"
    },
    "generator": "Sketchfab-16.8.0",
    "version": "2.0"
  },
  "bufferViews": [
    {
      "buffer": 0,
      "byteLength": 47412,
      "name": "floatBufferViews",
      "target": 34963
    },
    {
      "buffer": 0,
      "byteLength": 33536,
      "byteOffset": 47412,
      "byteStride": 8,
      "name": "floatBufferViews",
      "target": 34962
    },
    {
      "buffer": 0,
      "byteLength": 100608,
      "byteOffset": 80948,
      "byteStride": 12,
      "name": "floatBufferViews",
      "target": 34962
    }
  ],
  "buffers": [
    {
      "byteLength": 181556,
      "uri": "scene.bin"
    }
  ],
  "images": [
    {
      "uri": "textures/Material_baseColor.png"
    }
  ],
  "materials": [
    {
      "doubleSided": true,
      "name": "Material",
      "pbrMetallicRoughness": {
        "baseColorTexture": {
          "index": 0
        },
        "metallicFactor": 0.0,
        "roughnessFactor": 0.6
      }
    }
  ],
  "meshes": [
    {
      "name": "Object_0",
      "primitives": [
        {
          "attributes": {
            "NORMAL": 1,
            "POSITION": 0,
            "TEXCOORD_0": 2
          },
          "indices": 3,
          "material": 0,
          "mode": 4
        }
      ]
    }
  ],
  "nodes": [
    {
      "children": [
        1
      ],
      "matrix": [
        1.0,
        0.0,
        0.0,
        0.0,
        0.0,
        2.220446049250313e-16,
        -1.0,
        0.0,
        0.0,
        1.0,
        2.220446049250313e-16,
        0.0,
        0.0,
        0.0,
        0.0,
        1.0
      ],
      "name": "Sketchfab_model"
    },
    {
      "children": [
        2
      ],
      "name": "Runt .obj.cleaner.materialmerger.gles"
    },
    {
      "mesh": 0,
      "name": "Object_2"
    }
  ],
  "samplers": [
    {
      "magFilter": 9729,
      "minFilter": 9987,
      "wrapS": 10497,
      "wrapT": 10497
    }
  ],
  "scene": 0,
  "scenes": [
    {
      "name": "Sketchfab_Scene",
      "nodes": [
        0
      ]
    }
  ],
  "textures": [
    {
      "sampler": 0,
      "source": 0
    }
  ]
}
