{
  "accessors": [
    {
      "bufferView": 2,
      "componentType": 5126,
      "count": 1832,
      "max": [
        0.14995309710502625,
        0.15828800201416016,
        0.4959070086479187
      ],
      "min": [
        -0.14612889289855957,
        -0.11959599703550339,
        0.08075899630784988
      ],
      "type": "VEC3"
    },
    {
      "bufferView": 2,
      "byteOffset": 21984,
      "componentType": 5126,
      "count": 1832,
      "max": [
        1.0,
        0.9999579191207886,
        0.999690592288971
      ],
      "min": [
        -1.0,
        -0.9999579191207886,
        -1.0
      ],
      "type": "VEC3"
    },
    {
      "bufferView": 1,
      "componentType": 5126,
      "count": 1832,
      "max": [
        1.0,
        0.0
      ],
      "min": [
        0.0,
        -1.0
      ],
      "type": "VEC2"
    },
    {
      "bufferView": 0,
      "componentType": 5125,
      "count": 2766,
      "type": "SCALAR"
    },
    {
      "bufferView": 2,
      "byteOffset": 43968,
      "componentType": 5126,
      "count": 105,
      "max": [
        0.07783526182174683,
        0.08539900183677673,
        0.19729499518871307
      ],
      "min": [
        -0.07194173336029053,
        -0.06019800156354904,
        0.15108299255371094
      ],
      "type": "VEC3"
    },
    {
      "bufferView": 2,
      "byteOffset": 45228,
      "componentType": 5126,
      "count": 105,
      "max": [
        0.9989622831344604,
        0.9999940991401672,
        0.9971575140953064
      ],
      "min": [
        -0.9989622831344604,
        -0.9999939203262329,
        -0.9839963912963867
      ],
      "type": "VEC3"
    },
    {
      "bufferView": 1,
      "byteOffset": 14656,
      "componentType": 5126,
      "count": 105,
      "max": [
        3.2929999828338623,
        -0.549718976020813
      ],
      "min": [
        0.20317800343036652,
        -3.540163040161133
      ],
      "type": "VEC2"
    },
    {
      "bufferView": 0,
      "byteOffset": 11064,
      "componentType": 5125,
      "count": 255,
      "type": "SCALAR"
    },
    {
      "bufferView": 2,
      "byteOffset": 46488,
      "componentType": 5126,
      "count": 38,
      "max": [
        0.14063219726085663,
        0.1024940013885498,
        0.3322620093822479
      ],
      "min": [
        -0.13499779999256134,
        0.017164990305900574,
        0.24948500096797943
      ],
      "type": "VEC3"
    },
    {
      "bufferView": 2,
      "byteOffset": 46944,
      "componentType": 5126,
      "count": 38,
      "max": [
        0.9904668927192688,
        0.08966757357120514,
        -0.030264809727668762
      ],
      "min": [
        -0.9904668927192688,
        -0.9284772276878357,
        -0.5493980050086975
      ],
      "type": "VEC3"
    },
    {
      "bufferView": 1,
      "byteOffset": 15496,
      "componentType": 5126,
      "count": 38,
      "max": [
        3.299527883529663,
        0.0
      ],
      "min": [
        0.0,
        -3.1621129512786865
      ],
      "type": "VEC2"
    },
    {
      "bufferView": 0,
      "byteOffset": 12084,
      "componentType": 5125,
      "count": 126,
      "type": "SCALAR"
    },
    {
      "bufferView": 2,
      "byteOffset": 47400,
      "componentType": 5126,
      "count": 185,
      "max": [
        0.05580044165253639,
        -0.011355999857187271,
        0.3167339861392975
      ],
      "min": [
        -0.053067561239004135,
        -0.03790900111198425,
        0.2565990090370178
      ],
      "type": "VEC3"
    },
    {
      "bufferView": 2,
      "byteOffset": 49620,
      "componentType": 5126,
      "count": 185,
      "max": [
        0.9767919778823853,
        0.9996145963668823,
        0.8471863269805908
      ],
      "min": [
        -0.9767922163009644,
        -0.9991796016693115,
        -0.8376603126525879
      ],
      "type": "VEC3"
    },
    {
      "bufferView": 1,
      "byteOffset": 15800,
      "componentType": 5126,
      "count": 185,
      "max": [
        0.9558069705963135,
        -0.01256600022315979
      ],
      "min": [
        0.04385500028729439,
        -0.9774730205535889
      ],
      "type": "VEC2"
    },
    {
      "bufferView": 0,
      "byteOffset": 12588,
      "componentType": 5125,
      "count": 480,
      "type": "SCALAR"
    },
    {
      "bufferView": 2,
      "byteOffset": 51840,
      "componentType": 5126,
      "count": 1791,
      "max": [
        0.15592099726200104,
        0.17270800471305847,
        0.3667469918727875
      ],
      "min": [
        -0.15592099726200104,
        -0.07235900312662125,
        -0.00024500000290572643
      ],
      "type": "VEC3"
    },
    {
      "bufferView": 2,
      "byteOffset": 73332,
      "componentType": 5126,
      "count": 1791,
      "max": [
        0.999957799911499,
        0.999957799911499,
        1.0
      ],
      "min": [
        -0.999957799911499,
        -0.9999597072601318,
        -0.9999880790710449
      ],
      "type": "VEC3"
    },
    {
      "bufferView": 1,
      "byteOffset": 17280,
      "componentType": 5126,
      "count": 1791,
      "max": [
        0.9949820041656494,
        -0.0076299998909235
      ],
      "min": [
        0.0016560000367462635,
        -0.9912440180778503
      ],
      "type": "VEC2"
    },
    {
      "bufferView": 0,
      "byteOffset": 14508,
      "componentType": 5125,
      "count": 5382,
      "type": "SCALAR"
    },
    {
      "bufferView": 2,
      "byteOffset": 94824,
      "componentType": 5126,
      "count": 435,
      "max": [
        0.1336698979139328,
        0.18929000198841095,
        0.4468500018119812
      ],
      "min": [
        -0.12882210314273834,
        -0.11310199648141861,
        0.11749500036239624
      ],
      "type": "VEC3"
    },
    {
      "bufferView": 2,
      "byteOffset": 100044,
      "componentType": 5126,
      "count": 435,
      "max": [
        0.9999758005142212,
        1.0,
        0.9965562224388123
      ],
      "min": [
        -0.9999758005142212,
        -1.0,
        -0.9998207092285156
      ],
      "type": "VEC3"
    },
    {
      "bufferView": 1,
      "byteOffset": 31608,
      "componentType": 5126,
      "count": 435,
      "max": [
        5.3981781005859375,
        -0.02715199999511242
      ],
      "min": [
        0.16161499917507172,
        -5.648229122161865
      ],
      "type": "VEC2"
    },
    {
      "bufferView": 0,
      "byteOffset": 36036,
      "componentType": 5125,
      "count": 1464,
      "type": "SCALAR"
    }
  ],
  "asset": {
    "extras": {
      "author": "Jamessmartguy (https://sketchfab.com/skybaca1985)",
      "license": "CC-BY-4.0 (http://creativecommons.org/licenses/by/4.0/)",
      "source": "https://sketchfab.com/3d-models/fish-out-of-water-add-for-garry-mod-930c41f2c5ec442b8dfd4b033877a544",
      "title": "Fish Out of Water add for Garry Mod"
    },
    "generator": "Sketchfab-15.87.0",
    "version": "2.0"
  },
  "bufferViews": [
    {
      "buffer": 0,
      "byteLength": 41892,
      "name": "floatBufferViews",
      "target": 34963
    },
    {
      "buffer": 0,
      "byteLength": 35088,
      "byteOffset": 41892,
      "byteStride": 8,
      "name": "floatBufferViews",
      "target": 34962
    },
    {
      "buffer": 0,
      "byteLength": 105264,
      "byteOffset": 76980,
      "byteStride": 12,
      "name": "floatBufferViews",
      "target": 34962
    }
  ],
  "buffers": [
    {
      "byteLength": 182244,
      "uri": "scene.bin"
    }
  ],
  "images": [
    {
      "uri": "textures/Material_10_baseColor.png"
    },
    {
      "uri": "textures/Material_14_baseColor.png"
    },
    {
      "uri": "textures/Material_16_baseColor.png"
    },
    {
      "uri": "textures/Material_6_baseColor.png"
    },
    {
      "uri": "textures/Material_8_baseColor.png"
    }
  ],
  "materials": [
    {
      "doubleSided": true,
      "name": "Material_10",
      "pbrMetallicRoughness": {
        "baseColorTexture": {
          "index": 0
        },
        "metallicFactor": 0.0,
        "roughnessFactor": 0.6
      }
    },
    {
      "doubleSided": true,
      "name": "Material_12",
      "pbrMetallicRoughness": {
        "baseColorTexture": {
          "index": 0
        },
        "metallicFactor": 0.0,
        "roughnessFactor": 0.6
      }
    },
    {
      "doubleSided": true,
      "name": "Material_14",
      "pbrMetallicRoughness": {
        "baseColorTexture": {
          "index": 1
        },
        "metallicFactor": 0.0,
        "roughnessFactor": 0.6
      }
    },
    {
      "doubleSided": true,
      "name": "Material_16",
      "pbrMetallicRoughness": {
        "baseColorTexture": {
          "index": 2
        },
        "metallicFactor": 0.0,
        "roughnessFactor": 0.6
      }
    },
    {
      "doubleSided": true,
      "name": "Material_6",
      "pbrMetallicRoughness": {
        "baseColorTexture": {
          "index": 3
        },
        "metallicFactor": 0.0,
        "roughnessFactor": 0.6
      }
    },
    {
      "doubleSided": true,
      "name": "Material_8",
      "pbrMetallicRoughness": {
        "baseColorTexture": {
          "index": 4
        },
        "metallicFactor": 0.0,
        "roughnessFactor": 0.6
      }
    }
  ],
  "meshes": [
    {
      "name": "Object_0",
      "primitives": [
        {
          "attributes": {
            "NORMAL": 1,
            "POSITION": 0,
            "TEXCOORD_0": 2
          },
          "indices": 3,
          "material": 0,
          "mode": 4
        }
      ]
    },
    {
      "name": "Object_1",
      "primitives": [
        {
          "attributes": {
            "NORMAL": 5,
            "POSITION": 4,
            "TEXCOORD_0": 6
          },
          "indices": 7,
          "material": 1,
          "mode": 4
        }
      ]
    },
    {
      "name": "Object_2",
      "primitives": [
        {
          "attributes": {
            "NORMAL": 9,
            "POSITION": 8,
            "TEXCOORD_0": 10
          },
          "indices": 11,
          "material": 2,
          "mode": 4
        }
      ]
    },
    {
      "name": "Object_3",
      "primitives": [
        {
          "attributes": {
            "NORMAL": 13,
            "POSITION": 12,
            "TEXCOORD_0": 14
          },
          "indices": 15,
          "material": 3,
          "mode": 4
        }
      ]
    },
    {
      "name": "Object_4",
      "primitives": [
        {
          "attributes": {
            "NORMAL": 17,
            "POSITION": 16,
            "TEXCOORD_0": 18
          },
          "indices": 19,
          "material": 4,
          "mode": 4
        }
      ]
    },
    {
      "name": "Object_5",
      "primitives": [
        {
          "attributes": {
            "NORMAL": 21,
            "POSITION": 20,
            "TEXCOORD_0": 22
          },
          "indices": 23,
          "material": 5,
          "mode": 4
        }
      ]
    }
  ],
  "nodes": [
    {
      "children": [
        1
      ],
      "matrix": [
        1.0,
        0.0,
        0.0,
        0.0,
        0.0,
        2.220446049250313e-16,
        -1.0,
        0.0,
        0.0,
        1.0,
        2.220446049250313e-16,
        0.0,
        0.0,
        0.0,
        0.0,
        1.0
      ],
      "name": "Sketchfab_model"
    },
    {
      "children": [
        2,
        3,
        4,
        5,
        6,
        7
      ],
      "name": "fish out of water.obj.cleaner.materialmerger.gles"
    },
    {
      "mesh": 0,
      "name": "Object_2"
    },
    {
      "mesh": 1,
      "name": "Object_3"
    },
    {
      "mesh": 2,
      "name": "Object_4"
    },
    {
      "mesh": 3,
      "name": "Object_5"
    },
    {
      "mesh": 4,
      "name": "Object_6"
    },
    {
      "mesh": 5,
      "name": "Object_7"
    }
  ],
  "samplers": [
    {
      "magFilter": 9729,
      "minFilter": 9987,
      "wrapS": 10497,
      "wrapT": 10497
    }
  ],
  "scene": 0,
  "scenes": [
    {
      "name": "Sketchfab_Scene",
      "nodes": [
        0
      ]
    }
  ],
  "textures": [
    {
      "sampler": 0,
      "source": 0
    },
    {
      "sampler": 0,
      "source": 1
    },
    {
      "sampler": 0,
      "source": 2
    },
    {
      "sampler": 0,
      "source": 3
    },
    {
      "sampler": 0,
      "source": 4
    }
  ]
}
