{
  "accessors": [
    {
      "bufferView": 2,
      "componentType": 5126,
      "count": 1377,
      "max": [
        -1589.969970703125,
        -769.7210083007813,
        1377.7900390625
      ],
      "min": [
        -1598.530029296875,
        -780.7420043945313,
        1364.31005859375
      ],
      "type": "VEC3"
    },
    {
      "bufferView": 2,
      "byteOffset": 16524,
      "componentType": 5126,
      "count": 1377,
      "max": [
        0.9988859295845032,
        0.9996901750564575,
        0.9997521042823792
      ],
      "min": [
        -0.9974983334541321,
        -0.9999380111694336,
        -0.9988859295845032
      ],
      "type": "VEC3"
    },
    {
      "bufferView": 1,
      "componentType": 5126,
      "count": 1377,
      "max": [
        0.9750710129737854,
        0.9844359755516052
      ],
      "min": [
        0.012058000080287457,
        0.017472999170422554
      ],
      "type": "VEC2"
    },
    {
      "bufferView": 0,
      "componentType": 5125,
      "count": 3150,
      "type": "SCALAR"
    },
    {
      "bufferView": 2,
      "byteOffset": 33048,
      "componentType": 5126,
      "count": 587,
      "max": [
        -1590.43994140625,
        -769.2520141601563,
        1388.06005859375
      ],
      "min": [
        -1598.1700439453125,
        -777.4039916992188,
        1376.1300048828125
      ],
      "type": "VEC3"
    },
    {
      "bufferView": 2,
      "byteOffset": 40092,
      "componentType": 5126,
      "count": 587,
      "max": [
        0.9689247012138367,
        0.9991022348403931,
        0.9972217082977295
      ],
      "min": [
        -0.9824870824813843,
        -0.9998760223388672,
        -0.9905305504798889
      ],
      "type": "VEC3"
    },
    {
      "bufferView": 1,
      "byteOffset": 11016,
      "componentType": 5126,
      "count": 587,
      "max": [
        0.9768120050430298,
        0.9805669784545898
      ],
      "min": [
        0.02402999997138977,
        0.027641000226140022
      ],
      "type": "VEC2"
    },
    {
      "bufferView": 0,
      "byteOffset": 12600,
      "componentType": 5125,
      "count": 1362,
      "type": "SCALAR"
    },
    {
      "bufferView": 2,
      "byteOffset": 47136,
      "componentType": 5126,
      "count": 1644,
      "max": [
        -1581.199951171875,
        -738.0499877929688,
        1376.8900146484375
      ],
      "min": [
        -1620.699951171875,
        -835.77099609375,
        1358.68994140625
      ],
      "type": "VEC3"
    },
    {
      "bufferView": 2,
      "byteOffset": 66864,
      "componentType": 5126,
      "count": 1644,
      "max": [
        1.0,
        0.9972215890884399,
        1.0
      ],
      "min": [
        -0.9987623691558838,
        -0.9994733929634094,
        -1.0
      ],
      "type": "VEC3"
    },
    {
      "bufferView": 1,
      "byteOffset": 15712,
      "componentType": 5126,
      "count": 1644,
      "max": [
        1.0019999742507935,
        1.0
      ],
      "min": [
        0.0,
        -0.002001049928367138
      ],
      "type": "VEC2"
    },
    {
      "bufferView": 0,
      "byteOffset": 18048,
      "componentType": 5125,
      "count": 2955,
      "type": "SCALAR"
    },
    {
      "bufferView": 2,
      "byteOffset": 86592,
      "componentType": 5126,
      "count": 805,
      "max": [
        -1578.760009765625,
        -746.1649780273438,
        1374.3599853515625
      ],
      "min": [
        -1623.1300048828125,
        -830.9390258789063,
        1360.050048828125
      ],
      "type": "VEC3"
    },
    {
      "bufferView": 2,
      "byteOffset": 96252,
      "componentType": 5126,
      "count": 805,
      "max": [
        0.9992258548736572,
        1.0,
        1.0
      ],
      "min": [
        -0.9991022348403931,
        -0.9999690055847168,
        -0.7816387414932251
      ],
      "type": "VEC3"
    },
    {
      "bufferView": 1,
      "byteOffset": 28864,
      "componentType": 5126,
      "count": 805,
      "max": [
        0.983726978302002,
        0.9896619915962219
      ],
      "min": [
        0.0019049899419769645,
        0.003243030048906803
      ],
      "type": "VEC2"
    },
    {
      "bufferView": 0,
      "byteOffset": 29868,
      "componentType": 5125,
      "count": 1722,
      "type": "SCALAR"
    },
    {
      "bufferView": 2,
      "byteOffset": 105912,
      "componentType": 5126,
      "count": 557,
      "max": [
        -1598.1800537109375,
        -786.5800170898438,
        1366.760009765625
      ],
      "min": [
        -1603.719970703125,
        -790.1840209960938,
        1365.4000244140625
      ],
      "type": "VEC3"
    },
    {
      "bufferView": 2,
      "byteOffset": 112596,
      "componentType": 5126,
      "count": 557,
      "max": [
        0.9601536989212036,
        0.9929574131965637,
        0.7816387414932251
      ],
      "min": [
        -0.9607489705085754,
        -0.9938837289810181,
        -0.8964159488677979
      ],
      "type": "VEC3"
    },
    {
      "bufferView": 1,
      "byteOffset": 35304,
      "componentType": 5126,
      "count": 557,
      "max": [
        1.0,
        1.0
      ],
      "min": [
        0.0,
        0.0
      ],
      "type": "VEC2"
    },
    {
      "bufferView": 0,
      "byteOffset": 36756,
      "componentType": 5125,
      "count": 984,
      "type": "SCALAR"
    },
    {
      "bufferView": 2,
      "byteOffset": 119280,
      "componentType": 5126,
      "count": 712,
      "max": [
        -1598.06005859375,
        -786.5759887695313,
        1366.719970703125
      ],
      "min": [
        -1603.8399658203125,
        -790.2080078125,
        1365.1500244140625
      ],
      "type": "VEC3"
    },
    {
      "bufferView": 2,
      "byteOffset": 127824,
      "componentType": 5126,
      "count": 712,
      "max": [
        0.9994423985481262,
        0.8279790282249451,
        0.7195531129837036
      ],
      "min": [
        -0.9994423985481262,
        -0.7389669418334961,
        -0.7195531129837036
      ],
      "type": "VEC3"
    },
    {
      "bufferView": 1,
      "byteOffset": 39760,
      "componentType": 5126,
      "count": 712,
      "max": [
        1.0,
        1.0
      ],
      "min": [
        0.0,
        0.0
      ],
      "type": "VEC2"
    },
    {
      "bufferView": 0,
      "byteOffset": 40692,
      "componentType": 5125,
      "count": 1188,
      "type": "SCALAR"
    },
    {
      "bufferView": 2,
      "byteOffset": 136368,
      "componentType": 5126,
      "count": 2119,
      "max": [
        -1597.3599853515625,
        -784.8510131835938,
        1366.760009765625
      ],
      "min": [
        -1605.43994140625,
        -792.0089721679688,
        1359.3499755859375
      ],
      "type": "VEC3"
    },
    {
      "bufferView": 2,
      "byteOffset": 161796,
      "componentType": 5126,
      "count": 2119,
      "max": [
        1.0,
        1.0,
        1.0
      ],
      "min": [
        -1.0,
        -1.0,
        -1.0
      ],
      "type": "VEC3"
    },
    {
      "bufferView": 1,
      "byteOffset": 45456,
      "componentType": 5126,
      "count": 2119,
      "max": [
        56.34579849243164,
        -6.5525898933410645
      ],
      "min": [
        7.498079776763916,
        -53.45930099487305
      ],
      "type": "VEC2"
    },
    {
      "bufferView": 0,
      "byteOffset": 45444,
      "componentType": 5125,
      "count": 4257,
      "type": "SCALAR"
    }
  ],
  "asset": {
    "extras": {
      "author": "showbizchannel224 (https://sketchfab.com/showbizchannel224)",
      "license": "CC-BY-4.0 (http://creativecommons.org/licenses/by/4.0/)",
      "source": "https://sketchfab.com/3d-models/raccon-in-the-car-d394d4bf193b4e54b3943f78263dd41b",
      "title": "Raccon In The Car"
    },
    "generator": "Sketchfab-16.15.0",
    "version": "2.0"
  },
  "bufferViews": [
    {
      "buffer": 0,
      "byteLength": 62472,
      "name": "floatBufferViews",
      "target": 34963
    },
    {
      "buffer": 0,
      "byteLength": 62408,
      "byteOffset": 62472,
      "byteStride": 8,
      "name": "floatBufferViews",
      "target": 34962
    },
    {
      "buffer": 0,
      "byteLength": 187224,
      "byteOffset": 124880,
      "byteStride": 12,
      "name": "floatBufferViews",
      "target": 34962
    }
  ],
  "buffers": [
    {
      "byteLength": 312104,
      "uri": "scene.bin"
    }
  ],
  "extensionsUsed": [
    "KHR_materials_transmission"
  ],
  "images": [
    {
      "uri": "textures/Mesh3548nr1Mtl_baseColor.png"
    },
    {
      "uri": "textures/Mesh3548nr1Mtl_emissive.png"
    },
    {
      "uri": "textures/Mesh3548nr1Mtl_transmission.png"
    },
    {
      "uri": "textures/Mesh3549nr1Mtl_baseColor.png"
    },
    {
      "uri": "textures/Mesh3549nr1Mtl_emissive.png"
    },
    {
      "uri": "textures/Mesh3549nr1Mtl_transmission.png"
    },
    {
      "uri": "textures/Mesh3550nr1Mtl_baseColor.png"
    },
    {
      "uri": "textures/Mesh3550nr1Mtl_emissive.png"
    },
    {
      "uri": "textures/Mesh3550nr1Mtl_transmission.png"
    },
    {
      "uri": "textures/Mesh3551nr1Mtl_baseColor.png"
    },
    {
      "uri": "textures/Mesh3551nr1Mtl_emissive.png"
    },
    {
      "uri": "textures/Mesh3551nr1Mtl_transmission.png"
    },
    {
      "uri": "textures/Mesh3559nr1Mtl_baseColor.png"
    },
    {
      "uri": "textures/Mesh3559nr1Mtl_emissive.png"
    },
    {
      "uri": "textures/Mesh3579nr1Mtl_baseColor.png"
    },
    {
      "uri": "textures/Mesh3579nr1Mtl_emissive.png"
    }
  ],
  "materials": [
    {
      "doubleSided": true,
      "name": "Mesh11nr1Mtl",
      "pbrMetallicRoughness": {
        "baseColorFactor": [
          0.373615,
          0.368591,
          0.383775,
          1.0
        ],
        "metallicFactor": 0.0
      }
    },
    {
      "alphaMode": "BLEND",
      "doubleSided": true,
      "emissiveTexture": {
        "index": 1
      },
      "extensions": {
        "KHR_materials_transmission": {
          "transmissionFactor": 1.0,
          "transmissionTexture": {
            "index": 2
          }
        }
      },
      "name": "Mesh3548nr1Mtl",
      "pbrMetallicRoughness": {
        "baseColorTexture": {
          "index": 0
        },
        "metallicFactor": 0.0
      }
    },
    {
      "alphaMode": "BLEND",
      "doubleSided": true,
      "emissiveTexture": {
        "index": 4
      },
      "extensions": {
        "KHR_materials_transmission": {
          "transmissionFactor": 1.0,
          "transmissionTexture": {
            "index": 5
          }
        }
      },
      "name": "Mesh3549nr1Mtl",
      "pbrMetallicRoughness": {
        "baseColorTexture": {
          "index": 3
        },
        "metallicFactor": 0.0
      }
    },
    {
      "alphaMode": "BLEND",
      "doubleSided": true,
      "emissiveTexture": {
        "index": 7
      },
      "extensions": {
        "KHR_materials_transmission": {
          "transmissionFactor": 1.0,
          "transmissionTexture": {
            "index": 8
          }
        }
      },
      "name": "Mesh3550nr1Mtl",
      "pbrMetallicRoughness": {
        "baseColorTexture": {
          "index": 6
        },
        "metallicFactor": 0.0
      }
    },
    {
      "alphaMode": "BLEND",
      "doubleSided": true,
      "emissiveTexture": {
        "index": 10
      },
      "extensions": {
        "KHR_materials_transmission": {
          "transmissionFactor": 1.0,
          "transmissionTexture": {
            "index": 11
          }
        }
      },
      "name": "Mesh3551nr1Mtl",
      "pbrMetallicRoughness": {
        "baseColorTexture": {
          "index": 9
        },
        "metallicFactor": 0.0
      }
    },
    {
      "alphaMode": "BLEND",
      "doubleSided": true,
      "emissiveTexture": {
        "index": 13
      },
      "name": "Mesh3559nr1Mtl",
      "pbrMetallicRoughness": {
        "baseColorTexture": {
          "index": 12
        },
        "metallicFactor": 0.0
      }
    },
    {
      "alphaMode": "BLEND",
      "doubleSided": true,
      "emissiveTexture": {
        "index": 15
      },
      "name": "Mesh3579nr1Mtl",
      "pbrMetallicRoughness": {
        "baseColorTexture": {
          "index": 14
        },
        "metallicFactor": 0.0
      }
    }
  ],
  "meshes": [
    {
      "name": "Object_0",
      "primitives": [
        {
          "attributes": {
            "NORMAL": 1,
            "POSITION": 0,
            "TEXCOORD_0": 2
          },
          "indices": 3,
          "material": 1,
          "mode": 4
        }
      ]
    },
    {
      "name": "Object_1",
      "primitives": [
        {
          "attributes": {
            "NORMAL": 5,
            "POSITION": 4,
            "TEXCOORD_0": 6
          },
          "indices": 7,
          "material": 2,
          "mode": 4
        }
      ]
    },
    {
      "name": "Object_2",
      "primitives": [
        {
          "attributes": {
            "NORMAL": 9,
            "POSITION": 8,
            "TEXCOORD_0": 10
          },
          "indices": 11,
          "material": 3,
          "mode": 4
        }
      ]
    },
    {
      "name": "Object_3",
      "primitives": [
        {
          "attributes": {
            "NORMAL": 13,
            "POSITION": 12,
            "TEXCOORD_0": 14
          },
          "indices": 15,
          "material": 4,
          "mode": 4
        }
      ]
    },
    {
      "name": "Object_4",
      "primitives": [
        {
          "attributes": {
            "NORMAL": 17,
            "POSITION": 16,
            "TEXCOORD_0": 18
          },
          "indices": 19,
          "material": 5,
          "mode": 4
        }
      ]
    },
    {
      "name": "Object_5",
      "primitives": [
        {
          "attributes": {
            "NORMAL": 21,
            "POSITION": 20,
            "TEXCOORD_0": 22
          },
          "indices": 23,
          "material": 6,
          "mode": 4
        }
      ]
    },
    {
      "name": "Object_6",
      "primitives": [
        {
          "attributes": {
            "NORMAL": 25,
            "POSITION": 24,
            "TEXCOORD_0": 26
          },
          "indices": 27,
          "material": 0,
          "mode": 4
        }
      ]
    }
  ],
  "nodes": [
    {
      "children": [
        1
      ],
      "matrix": [
        1.0,
        0.0,
        0.0,
        0.0,
        0.0,
        2.220446049250313e-16,
        -1.0,
        0.0,
        0.0,
        1.0,
        2.220446049250313e-16,
        0.0,
        0.0,
        0.0,
        0.0,
        1.0
      ],
      "name": "Sketchfab_model"
    },
    {
      "children": [
        2,
        3,
        4,
        5,
        6,
        7,
        8
      ],
      "name": "car.obj.cleaner.materialmerger.gles"
    },
    {
      "mesh": 0,
      "name": "Object_2"
    },
    {
      "mesh": 1,
      "name": "Object_3"
    },
    {
      "mesh": 2,
      "name": "Object_4"
    },
    {
      "mesh": 3,
      "name": "Object_5"
    },
    {
      "mesh": 4,
      "name": "Object_6"
    },
    {
      "mesh": 5,
      "name": "Object_7"
    },
    {
      "mesh": 6,
      "name": "Object_8"
    }
  ],
  "samplers": [
    {
      "magFilter": 9729,
      "minFilter": 9987,
      "wrapS": 10497,
      "wrapT": 10497
    }
  ],
  "scene": 0,
  "scenes": [
    {
      "name": "Sketchfab_Scene",
      "nodes": [
        0
      ]
    }
  ],
  "textures": [
    {
      "sampler": 0,
      "source": 0
    },
    {
      "sampler": 0,
      "source": 1
    },
    {
      "sampler": 0,
      "source": 2
    },
    {
      "sampler": 0,
      "source": 3
    },
    {
      "sampler": 0,
      "source": 4
    },
    {
      "sampler": 0,
      "source": 5
    },
    {
      "sampler": 0,
      "source": 6
    },
    {
      "sampler": 0,
      "source": 7
    },
    {
      "sampler": 0,
      "source": 8
    },
    {
      "sampler": 0,
      "source": 9
    },
    {
      "sampler": 0,
      "source": 10
    },
    {
      "sampler": 0,
      "source": 11
    },
    {
      "sampler": 0,
      "source": 12
    },
    {
      "sampler": 0,
      "source": 13
    },
    {
      "sampler": 0,
      "source": 14
    },
    {
      "sampler": 0,
      "source": 15
    }
  ]
}
